<svg xmlns="http://www.w3.org/2000/svg" width="1920" height="1100" viewBox="0 0 1920 1100"><rect width="1920" height="1100" fill="#FFFFFF"/><rect x="14" y="14" width="1892" height="1072" fill="none" stroke="#14213D" stroke-width="3"/><text x="44" y="72" font-family="'Segoe UI', Arial, sans-serif" font-size="38" font-weight="700" text-anchor="start" fill="#14213D">Blue Wave – Wiring Schematic</text><text x="44" y="104" font-family="'Segoe UI', Arial, sans-serif" font-size="19" font-weight="600" text-anchor="start" fill="#4A5568">Arduino Uno R3 · finals firmware v20b · pins from Open_Challenge.ino and Obstacle_Challenge.ino</text><rect x="1640" y="30" width="240" height="228" fill="#FFFFFF" stroke="#14213D" stroke-width="2.4"/><text x="1760" y="60" font-family="'Segoe UI', Arial, sans-serif" font-size="19" font-weight="700" text-anchor="middle" fill="#14213D">COLOUR KEY</text><line x1="1660" y1="84" x2="1720" y2="84" stroke="#E03131" stroke-width="4"/><text x="1734" y="90" font-family="'Segoe UI', Arial, sans-serif" font-size="19" font-weight="600" text-anchor="start" fill="#14213D">5 V</text><line x1="1660" y1="109" x2="1720" y2="109" stroke="#111111" stroke-width="4"/><text x="1734" y="115" font-family="'Segoe UI', Arial, sans-serif" font-size="19" font-weight="600" text-anchor="start" fill="#14213D">GND</text><line x1="1660" y1="134" x2="1720" y2="134" stroke="#8B1A1A" stroke-width="7"/><text x="1734" y="140" font-family="'Segoe UI', Arial, sans-serif" font-size="19" font-weight="600" text-anchor="start" fill="#14213D">battery</text><line x1="1660" y1="159" x2="1720" y2="159" stroke="#1C6DD0" stroke-width="4"/><text x="1734" y="165" font-family="'Segoe UI', Arial, sans-serif" font-size="19" font-weight="600" text-anchor="start" fill="#14213D">signal</text><line x1="1660" y1="184" x2="1720" y2="184" stroke="#2F9E44" stroke-width="4"/><text x="1734" y="190" font-family="'Segoe UI', Arial, sans-serif" font-size="19" font-weight="600" text-anchor="start" fill="#14213D">I2C</text><line x1="1660" y1="209" x2="1720" y2="209" stroke="#7B2FBE" stroke-width="4"/><text x="1734" y="215" font-family="'Segoe UI', Arial, sans-serif" font-size="19" font-weight="600" text-anchor="start" fill="#14213D">SPI</text><line x1="1660" y1="234" x2="1720" y2="234" stroke="#9C5B2E" stroke-width="4"/><text x="1734" y="240" font-family="'Segoe UI', Arial, sans-serif" font-size="19" font-weight="600" text-anchor="start" fill="#14213D">motor</text><rect x="130" y="220" width="230" height="100" fill="#FFFFFF" stroke="#14213D" stroke-width="2.6"/><text x="245" y="263.79" font-family="'Segoe UI', Arial, sans-serif" font-size="23" font-weight="700" text-anchor="middle" fill="#14213D">HC-SR04</text><text x="245" y="292.31" font-family="'Segoe UI', Arial, sans-serif" font-size="23" font-weight="700" text-anchor="middle" fill="#14213D">FRONT</text><line x1="122" y1="245" x2="130" y2="245" stroke="#14213D" stroke-width="2.6"/><text x="138" y="251" font-family="Consolas, 'DejaVu Sans Mono', monospace" font-size="19" font-weight="700" text-anchor="start" fill="#14213D">VCC</text><line x1="122" y1="300" x2="130" y2="300" stroke="#14213D" stroke-width="2.6"/><text x="138" y="306" font-family="Consolas, 'DejaVu Sans Mono', monospace" font-size="19" font-weight="700" text-anchor="start" fill="#14213D">GND</text><line x1="360" y1="260" x2="368" y2="260" stroke="#14213D" stroke-width="2.6"/><text x="352" y="266" font-family="Consolas, 'DejaVu Sans Mono', monospace" font-size="19" font-weight="700" text-anchor="end" fill="#14213D">TRIG</text><path d="M368,260 L752,260" fill="none" stroke="#1C6DD0" stroke-width="2.6" stroke-linejoin="round"/><line x1="360" y1="290" x2="368" y2="290" stroke="#14213D" stroke-width="2.6"/><text x="352" y="296" font-family="Consolas, 'DejaVu Sans Mono', monospace" font-size="19" font-weight="700" text-anchor="end" fill="#14213D">ECHO</text><path d="M368,290 L752,290" fill="none" stroke="#1C6DD0" stroke-width="2.6" stroke-linejoin="round"/><path d="M122,300 L100,300" fill="none" stroke="#111111" stroke-width="2.6" stroke-linejoin="round"/><circle cx="100" cy="300" r="5.5" fill="#111111"/><path d="M122,245 L70,245" fill="none" stroke="#E03131" stroke-width="2.6" stroke-linejoin="round"/><circle cx="70" cy="245" r="5.5" fill="#E03131"/><rect x="130" y="345" width="230" height="100" fill="#FFFFFF" stroke="#14213D" stroke-width="2.6"/><text x="245" y="388.79" font-family="'Segoe UI', Arial, sans-serif" font-size="23" font-weight="700" text-anchor="middle" fill="#14213D">HC-SR04</text><text x="245" y="417.31" font-family="'Segoe UI', Arial, sans-serif" font-size="23" font-weight="700" text-anchor="middle" fill="#14213D">LEFT</text><line x1="122" y1="370" x2="130" y2="370" stroke="#14213D" stroke-width="2.6"/><text x="138" y="376" font-family="Consolas, 'DejaVu Sans Mono', monospace" font-size="19" font-weight="700" text-anchor="start" fill="#14213D">VCC</text><line x1="122" y1="425" x2="130" y2="425" stroke="#14213D" stroke-width="2.6"/><text x="138" y="431" font-family="Consolas, 'DejaVu Sans Mono', monospace" font-size="19" font-weight="700" text-anchor="start" fill="#14213D">GND</text><line x1="360" y1="385" x2="368" y2="385" stroke="#14213D" stroke-width="2.6"/><text x="352" y="391" font-family="Consolas, 'DejaVu Sans Mono', monospace" font-size="19" font-weight="700" text-anchor="end" fill="#14213D">TRIG</text><path d="M368,385 L752,385" fill="none" stroke="#1C6DD0" stroke-width="2.6" stroke-linejoin="round"/><line x1="360" y1="415" x2="368" y2="415" stroke="#14213D" stroke-width="2.6"/><text x="352" y="421" font-family="Consolas, 'DejaVu Sans Mono', monospace" font-size="19" font-weight="700" text-anchor="end" fill="#14213D">ECHO</text><path d="M368,415 L752,415" fill="none" stroke="#1C6DD0" stroke-width="2.6" stroke-linejoin="round"/><path d="M122,425 L100,425" fill="none" stroke="#111111" stroke-width="2.6" stroke-linejoin="round"/><circle cx="100" cy="425" r="5.5" fill="#111111"/><path d="M70,370 L93,370 A7,7 0 0 1 107,370 L122,370" fill="none" stroke="#E03131" stroke-width="2.6"/><circle cx="70" cy="370" r="5.5" fill="#E03131"/><rect x="130" y="470" width="230" height="100" fill="#FFFFFF" stroke="#14213D" stroke-width="2.6"/><text x="245" y="513.79" font-family="'Segoe UI', Arial, sans-serif" font-size="23" font-weight="700" text-anchor="middle" fill="#14213D">HC-SR04</text><text x="245" y="542.31" font-family="'Segoe UI', Arial, sans-serif" font-size="23" font-weight="700" text-anchor="middle" fill="#14213D">RIGHT</text><line x1="122" y1="495" x2="130" y2="495" stroke="#14213D" stroke-width="2.6"/><text x="138" y="501" font-family="Consolas, 'DejaVu Sans Mono', monospace" font-size="19" font-weight="700" text-anchor="start" fill="#14213D">VCC</text><line x1="122" y1="550" x2="130" y2="550" stroke="#14213D" stroke-width="2.6"/><text x="138" y="556" font-family="Consolas, 'DejaVu Sans Mono', monospace" font-size="19" font-weight="700" text-anchor="start" fill="#14213D">GND</text><line x1="360" y1="510" x2="368" y2="510" stroke="#14213D" stroke-width="2.6"/><text x="352" y="516" font-family="Consolas, 'DejaVu Sans Mono', monospace" font-size="19" font-weight="700" text-anchor="end" fill="#14213D">TRIG</text><path d="M368,510 L752,510" fill="none" stroke="#1C6DD0" stroke-width="2.6" stroke-linejoin="round"/><line x1="360" y1="540" x2="368" y2="540" stroke="#14213D" stroke-width="2.6"/><text x="352" y="546" font-family="Consolas, 'DejaVu Sans Mono', monospace" font-size="19" font-weight="700" text-anchor="end" fill="#14213D">ECHO</text><path d="M368,540 L752,540" fill="none" stroke="#1C6DD0" stroke-width="2.6" stroke-linejoin="round"/><path d="M122,550 L100,550" fill="none" stroke="#111111" stroke-width="2.6" stroke-linejoin="round"/><circle cx="100" cy="550" r="5.5" fill="#111111"/><path d="M70,495 L93,495 A7,7 0 0 1 107,495 L122,495" fill="none" stroke="#E03131" stroke-width="2.6"/><circle cx="70" cy="495" r="5.5" fill="#E03131"/><rect x="130" y="595" width="230" height="100" fill="#FFFFFF" stroke="#14213D" stroke-width="2.6"/><text x="245" y="638.79" font-family="'Segoe UI', Arial, sans-serif" font-size="23" font-weight="700" text-anchor="middle" fill="#14213D">BNO055</text><text x="245" y="667.31" font-family="'Segoe UI', Arial, sans-serif" font-size="23" font-weight="700" text-anchor="middle" fill="#14213D">IMU</text><line x1="122" y1="620" x2="130" y2="620" stroke="#14213D" stroke-width="2.6"/><text x="138" y="626" font-family="Consolas, 'DejaVu Sans Mono', monospace" font-size="19" font-weight="700" text-anchor="start" fill="#14213D">VIN</text><line x1="122" y1="675" x2="130" y2="675" stroke="#14213D" stroke-width="2.6"/><text x="138" y="681" font-family="Consolas, 'DejaVu Sans Mono', monospace" font-size="19" font-weight="700" text-anchor="start" fill="#14213D">GND</text><line x1="360" y1="635" x2="368" y2="635" stroke="#14213D" stroke-width="2.6"/><text x="352" y="641" font-family="Consolas, 'DejaVu Sans Mono', monospace" font-size="19" font-weight="700" text-anchor="end" fill="#14213D">SDA</text><path d="M368,635 L752,635" fill="none" stroke="#2F9E44" stroke-width="2.6" stroke-linejoin="round"/><line x1="360" y1="665" x2="368" y2="665" stroke="#14213D" stroke-width="2.6"/><text x="352" y="671" font-family="Consolas, 'DejaVu Sans Mono', monospace" font-size="19" font-weight="700" text-anchor="end" fill="#14213D">SCL</text><path d="M368,665 L752,665" fill="none" stroke="#2F9E44" stroke-width="2.6" stroke-linejoin="round"/><path d="M122,675 L100,675" fill="none" stroke="#111111" stroke-width="2.6" stroke-linejoin="round"/><circle cx="100" cy="675" r="5.5" fill="#111111"/><path d="M70,620 L93,620 A7,7 0 0 1 107,620 L122,620" fill="none" stroke="#E03131" stroke-width="2.6"/><rect x="130" y="730" width="230" height="160" fill="#FFFFFF" stroke="#14213D" stroke-width="2.6"/><text x="245" y="803.79" font-family="'Segoe UI', Arial, sans-serif" font-size="23" font-weight="700" text-anchor="middle" fill="#14213D">PIXY2</text><text x="245" y="832.31" font-family="'Segoe UI', Arial, sans-serif" font-size="23" font-weight="700" text-anchor="middle" fill="#14213D">CAMERA</text><line x1="360" y1="760" x2="368" y2="760" stroke="#14213D" stroke-width="2.6"/><text x="352" y="766" font-family="Consolas, 'DejaVu Sans Mono', monospace" font-size="19" font-weight="700" text-anchor="end" fill="#14213D">MISO</text><path d="M368,760 L762,760" fill="none" stroke="#7B2FBE" stroke-width="2.6" stroke-linejoin="round"/><line x1="360" y1="785" x2="368" y2="785" stroke="#14213D" stroke-width="2.6"/><text x="352" y="791" font-family="Consolas, 'DejaVu Sans Mono', monospace" font-size="19" font-weight="700" text-anchor="end" fill="#14213D">SCK</text><path d="M368,785 L762,785" fill="none" stroke="#7B2FBE" stroke-width="2.6" stroke-linejoin="round"/><line x1="360" y1="810" x2="368" y2="810" stroke="#14213D" stroke-width="2.6"/><text x="352" y="816" font-family="Consolas, 'DejaVu Sans Mono', monospace" font-size="19" font-weight="700" text-anchor="end" fill="#14213D">MOSI</text><path d="M368,810 L762,810" fill="none" stroke="#7B2FBE" stroke-width="2.6" stroke-linejoin="round"/><line x1="360" y1="835" x2="368" y2="835" stroke="#14213D" stroke-width="2.6"/><text x="352" y="841" font-family="Consolas, 'DejaVu Sans Mono', monospace" font-size="19" font-weight="700" text-anchor="end" fill="#14213D">5V</text><path d="M368,835 L762,835" fill="none" stroke="#7B2FBE" stroke-width="2.6" stroke-linejoin="round"/><line x1="360" y1="860" x2="368" y2="860" stroke="#14213D" stroke-width="2.6"/><text x="352" y="866" font-family="Consolas, 'DejaVu Sans Mono', monospace" font-size="19" font-weight="700" text-anchor="end" fill="#14213D">GND</text><path d="M368,860 L762,860" fill="none" stroke="#7B2FBE" stroke-width="2.6" stroke-linejoin="round"/><text x="560" y="752" font-family="'Segoe UI', Arial, sans-serif" font-size="18" font-weight="700" text-anchor="middle" fill="#7B2FBE">ICSP RIBBON</text><path d="M70,620 L70,150 L1440,150 L1440,197" fill="none" stroke="#E03131" stroke-width="3.2" stroke-linejoin="round"/><text x="84" y="138" font-family="'Segoe UI', Arial, sans-serif" font-size="20" font-weight="700" text-anchor="start" fill="#E03131">5V</text><path d="M100,300 L100,1000 L1860,1000 L1860,290 L1618,290" fill="none" stroke="#111111" stroke-width="3.2" stroke-linejoin="round"/><text x="114" y="1026" font-family="'Segoe UI', Arial, sans-serif" font-size="20" font-weight="700" text-anchor="start" fill="#111111">GND</text><rect x="760" y="230" width="340" height="690" fill="#FFFFFF" stroke="#14213D" stroke-width="2.6"/><text x="970" y="560" font-family="'Segoe UI', Arial, sans-serif" font-size="28" font-weight="700" text-anchor="middle" fill="#14213D">ARDUINO UNO R3</text><text x="970" y="590" font-family="'Segoe UI', Arial, sans-serif" font-size="21" font-weight="500" text-anchor="middle" fill="#4A5568">ATmega328P</text><line x1="752" y1="260" x2="760" y2="260" stroke="#14213D" stroke-width="2.6"/><text x="768" y="266" font-family="Consolas, 'DejaVu Sans Mono', monospace" font-size="19" font-weight="700" text-anchor="start" fill="#14213D">D13</text><line x1="752" y1="290" x2="760" y2="290" stroke="#14213D" stroke-width="2.6"/><text x="768" y="296" font-family="Consolas, 'DejaVu Sans Mono', monospace" font-size="19" font-weight="700" text-anchor="start" fill="#14213D">D7</text><line x1="752" y1="385" x2="760" y2="385" stroke="#14213D" stroke-width="2.6"/><text x="768" y="391" font-family="Consolas, 'DejaVu Sans Mono', monospace" font-size="19" font-weight="700" text-anchor="start" fill="#14213D">D4</text><line x1="752" y1="415" x2="760" y2="415" stroke="#14213D" stroke-width="2.6"/><text x="768" y="421" font-family="Consolas, 'DejaVu Sans Mono', monospace" font-size="19" font-weight="700" text-anchor="start" fill="#14213D">D5</text><line x1="752" y1="510" x2="760" y2="510" stroke="#14213D" stroke-width="2.6"/><text x="768" y="516" font-family="Consolas, 'DejaVu Sans Mono', monospace" font-size="19" font-weight="700" text-anchor="start" fill="#14213D">D2</text><line x1="752" y1="540" x2="760" y2="540" stroke="#14213D" stroke-width="2.6"/><text x="768" y="546" font-family="Consolas, 'DejaVu Sans Mono', monospace" font-size="19" font-weight="700" text-anchor="start" fill="#14213D">D9</text><line x1="752" y1="635" x2="760" y2="635" stroke="#14213D" stroke-width="2.6"/><text x="768" y="641" font-family="Consolas, 'DejaVu Sans Mono', monospace" font-size="19" font-weight="700" text-anchor="start" fill="#14213D">A4</text><line x1="752" y1="665" x2="760" y2="665" stroke="#14213D" stroke-width="2.6"/><text x="768" y="671" font-family="Consolas, 'DejaVu Sans Mono', monospace" font-size="19" font-weight="700" text-anchor="start" fill="#14213D">A5</text><rect x="760" y="735" width="112" height="140" fill="#F4F6FA" stroke="#14213D" stroke-width="2"/><text x="816" y="726" font-family="'Segoe UI', Arial, sans-serif" font-size="19" font-weight="700" text-anchor="middle" fill="#14213D">ICSP</text><text x="770" y="766" font-family="Consolas, 'DejaVu Sans Mono', monospace" font-size="18" font-weight="700" text-anchor="start" fill="#14213D">MISO</text><text x="770" y="791" font-family="Consolas, 'DejaVu Sans Mono', monospace" font-size="18" font-weight="700" text-anchor="start" fill="#14213D">SCK</text><text x="770" y="816" font-family="Consolas, 'DejaVu Sans Mono', monospace" font-size="18" font-weight="700" text-anchor="start" fill="#14213D">MOSI</text><text x="770" y="841" font-family="Consolas, 'DejaVu Sans Mono', monospace" font-size="18" font-weight="700" text-anchor="start" fill="#14213D">5V</text><text x="770" y="866" font-family="Consolas, 'DejaVu Sans Mono', monospace" font-size="18" font-weight="700" text-anchor="start" fill="#14213D">GND</text><line x1="1100" y1="250" x2="1108" y2="250" stroke="#14213D" stroke-width="2.6"/><text x="1092" y="256" font-family="Consolas, 'DejaVu Sans Mono', monospace" font-size="19" font-weight="700" text-anchor="end" fill="#14213D">D10</text><line x1="1100" y1="430" x2="1108" y2="430" stroke="#14213D" stroke-width="2.6"/><text x="1092" y="436" font-family="Consolas, 'DejaVu Sans Mono', monospace" font-size="19" font-weight="700" text-anchor="end" fill="#14213D">D3</text><line x1="1100" y1="460" x2="1108" y2="460" stroke="#14213D" stroke-width="2.6"/><text x="1092" y="466" font-family="Consolas, 'DejaVu Sans Mono', monospace" font-size="19" font-weight="700" text-anchor="end" fill="#14213D">D8</text><line x1="930" y1="222" x2="930" y2="230" stroke="#14213D" stroke-width="2.6"/><text x="930" y="258" font-family="Consolas, 'DejaVu Sans Mono', monospace" font-size="19" font-weight="700" text-anchor="middle" fill="#14213D">5V</text><path d="M930,222 L930,150" fill="none" stroke="#E03131" stroke-width="2.6" stroke-linejoin="round"/><circle cx="930" cy="150" r="5.5" fill="#E03131"/><line x1="820" y1="920" x2="820" y2="928" stroke="#14213D" stroke-width="2.6"/><text x="820" y="908" font-family="Consolas, 'DejaVu Sans Mono', monospace" font-size="19" font-weight="700" text-anchor="middle" fill="#14213D">A2</text><line x1="900" y1="920" x2="900" y2="928" stroke="#14213D" stroke-width="2.6"/><text x="900" y="908" font-family="Consolas, 'DejaVu Sans Mono', monospace" font-size="19" font-weight="700" text-anchor="middle" fill="#14213D">GND</text><line x1="1000" y1="920" x2="1000" y2="928" stroke="#14213D" stroke-width="2.6"/><text x="1000" y="908" font-family="Consolas, 'DejaVu Sans Mono', monospace" font-size="19" font-weight="700" text-anchor="middle" fill="#14213D">VIN</text><path d="M900,928 L900,1000" fill="none" stroke="#111111" stroke-width="2.6" stroke-linejoin="round"/><circle cx="900" cy="1000" r="5.5" fill="#111111"/><path d="M820,928 L820,950 L786,950" fill="none" stroke="#1C6DD0" stroke-width="2.6" stroke-linejoin="round"/><circle cx="724" cy="950" r="4.5" fill="#FFFFFF" stroke="#14213D" stroke-width="2.4"/><circle cx="782" cy="950" r="4.5" fill="#FFFFFF" stroke="#14213D" stroke-width="2.4"/><line x1="727" y1="947" x2="778" y2="930" stroke="#14213D" stroke-width="2.6"/><path d="M720,950 L650,950 L650,1000" fill="none" stroke="#111111" stroke-width="2.6" stroke-linejoin="round"/><circle cx="650" cy="1000" r="5.5" fill="#111111"/><text x="752" y="984" font-family="'Segoe UI', Arial, sans-serif" font-size="18" font-weight="700" text-anchor="middle" fill="#14213D">START SWITCH</text><text x="636" y="944" font-family="Consolas, 'DejaVu Sans Mono', monospace" font-size="16" font-weight="700" text-anchor="end" fill="#4A5568">INPUT_PULLUP</text><path d="M1000,928 L1000,950 L1036,950" fill="none" stroke="#8B1A1A" stroke-width="5" stroke-linejoin="round"/><circle cx="1040" cy="950" r="4.5" fill="#FFFFFF" stroke="#14213D" stroke-width="2.4"/><circle cx="1098" cy="950" r="4.5" fill="#FFFFFF" stroke="#14213D" stroke-width="2.4"/><line x1="1043" y1="947" x2="1094" y2="930" stroke="#14213D" stroke-width="2.6"/><path d="M1102,950 L1150,950" fill="none" stroke="#8B1A1A" stroke-width="5" stroke-linejoin="round"/><text x="1066" y="1026" font-family="'Segoe UI', Arial, sans-serif" font-size="18" font-weight="700" text-anchor="middle" fill="#14213D">MAIN POWER SWITCH</text><rect x="1150" y="915" width="160" height="70" fill="#FFFFFF" stroke="#14213D" stroke-width="2.6"/><text x="1230" y="957" font-family="'Segoe UI', Arial, sans-serif" font-size="20" font-weight="700" text-anchor="middle" fill="#14213D">BATTERY 2</text><text x="1158" y="938" font-family="'Segoe UI', Arial, sans-serif" font-size="16" font-weight="700" text-anchor="start" fill="#8B1A1A">+</text><text x="1292" y="938" font-family="'Segoe UI', Arial, sans-serif" font-size="16" font-weight="700" text-anchor="start" fill="#111111">−</text><path d="M1310,950 L1330,950 L1330,1000" fill="none" stroke="#111111" stroke-width="3.2" stroke-linejoin="round"/><circle cx="1330" cy="1000" r="5.5" fill="#111111"/><rect x="1380" y="205" width="230" height="110" fill="#FFFFFF" stroke="#14213D" stroke-width="2.6"/><text x="1500" y="272" font-family="'Segoe UI', Arial, sans-serif" font-size="22" font-weight="700" text-anchor="middle" fill="#14213D">STEERING</text><text x="1500" y="299" font-family="'Segoe UI', Arial, sans-serif" font-size="22" font-weight="700" text-anchor="middle" fill="#14213D">SERVO</text><line x1="1372" y1="250" x2="1380" y2="250" stroke="#14213D" stroke-width="2.6"/><text x="1388" y="256" font-family="Consolas, 'DejaVu Sans Mono', monospace" font-size="19" font-weight="700" text-anchor="start" fill="#14213D">SIG</text><path d="M1108,250 L1372,250" fill="none" stroke="#1C6DD0" stroke-width="2.6" stroke-linejoin="round"/><text x="1440" y="232" font-family="Consolas, 'DejaVu Sans Mono', monospace" font-size="19" font-weight="700" text-anchor="middle" fill="#14213D">V+</text><line x1="1610" y1="290" x2="1618" y2="290" stroke="#14213D" stroke-width="2.6"/><text x="1602" y="296" font-family="Consolas, 'DejaVu Sans Mono', monospace" font-size="19" font-weight="700" text-anchor="end" fill="#14213D">GND</text><rect x="1380" y="390" width="260" height="230" fill="#FFFFFF" stroke="#14213D" stroke-width="2.6"/><text x="1500" y="554" font-family="'Segoe UI', Arial, sans-serif" font-size="22" font-weight="700" text-anchor="middle" fill="#14213D">CYTRON MD13S</text><text x="1500" y="582" font-family="'Segoe UI', Arial, sans-serif" font-size="22" font-weight="700" text-anchor="middle" fill="#14213D">MOTOR DRIVER</text><line x1="1372" y1="430" x2="1380" y2="430" stroke="#14213D" stroke-width="2.6"/><text x="1388" y="436" font-family="Consolas, 'DejaVu Sans Mono', monospace" font-size="19" font-weight="700" text-anchor="start" fill="#14213D">PWM</text><line x1="1372" y1="460" x2="1380" y2="460" stroke="#14213D" stroke-width="2.6"/><text x="1388" y="466" font-family="Consolas, 'DejaVu Sans Mono', monospace" font-size="19" font-weight="700" text-anchor="start" fill="#14213D">DIR</text><line x1="1372" y1="490" x2="1380" y2="490" stroke="#14213D" stroke-width="2.6"/><text x="1388" y="496" font-family="Consolas, 'DejaVu Sans Mono', monospace" font-size="19" font-weight="700" text-anchor="start" fill="#14213D">GND</text><path d="M1108,430 L1372,430" fill="none" stroke="#1C6DD0" stroke-width="2.6" stroke-linejoin="round"/><path d="M1108,460 L1372,460" fill="none" stroke="#1C6DD0" stroke-width="2.6" stroke-linejoin="round"/><path d="M1372,490 L1350,490 L1350,1000" fill="none" stroke="#111111" stroke-width="2.6" stroke-linejoin="round"/><circle cx="1350" cy="1000" r="5.5" fill="#111111"/><line x1="1640" y1="450" x2="1648" y2="450" stroke="#14213D" stroke-width="2.6"/><text x="1632" y="456" font-family="Consolas, 'DejaVu Sans Mono', monospace" font-size="19" font-weight="700" text-anchor="end" fill="#14213D">MOTOR A</text><line x1="1640" y1="510" x2="1648" y2="510" stroke="#14213D" stroke-width="2.6"/><text x="1632" y="516" font-family="Consolas, 'DejaVu Sans Mono', monospace" font-size="19" font-weight="700" text-anchor="end" fill="#14213D">MOTOR B</text><line x1="1460" y1="620" x2="1460" y2="628" stroke="#14213D" stroke-width="2.6"/><text x="1460" y="610" font-family="Consolas, 'DejaVu Sans Mono', monospace" font-size="17" font-weight="700" text-anchor="middle" fill="#14213D">POWER +</text><line x1="1560" y1="620" x2="1560" y2="628" stroke="#14213D" stroke-width="2.6"/><text x="1560" y="610" font-family="Consolas, 'DejaVu Sans Mono', monospace" font-size="17" font-weight="700" text-anchor="middle" fill="#14213D">POWER −</text><circle cx="1760" cy="560" r="42" fill="#FFFFFF" stroke="#14213D" stroke-width="2.8"/><text x="1760" y="574" font-family="'Segoe UI', Arial, sans-serif" font-size="38" font-weight="700" text-anchor="middle" fill="#14213D">M</text><text x="1760" y="634" font-family="'Segoe UI', Arial, sans-serif" font-size="21" font-weight="700" text-anchor="middle" fill="#14213D">DC MOTOR</text><path d="M1648,450 L1760,450 L1760,518" fill="none" stroke="#9C5B2E" stroke-width="3.2" stroke-linejoin="round"/><path d="M1648,510 L1700,510 L1700,560 L1718,560" fill="none" stroke="#9C5B2E" stroke-width="3.2" stroke-linejoin="round"/><rect x="1430" y="900" width="200" height="80" fill="#FFFFFF" stroke="#14213D" stroke-width="2.6"/><text x="1530" y="934.6" font-family="'Segoe UI', Arial, sans-serif" font-size="20" font-weight="700" text-anchor="middle" fill="#14213D">BATTERY 1</text><text x="1530" y="959.4" font-family="'Segoe UI', Arial, sans-serif" font-size="20" font-weight="700" text-anchor="middle" fill="#14213D">2S LiPo 7.4 V</text><path d="M1460,628 L1460,900" fill="none" stroke="#8B1A1A" stroke-width="5" stroke-linejoin="round"/><path d="M1560,628 L1560,900" fill="none" stroke="#111111" stroke-width="5" stroke-linejoin="round"/><text x="1474" y="895" font-family="'Segoe UI', Arial, sans-serif" font-size="18" font-weight="700" text-anchor="start" fill="#8B1A1A">+</text><text x="1574" y="895" font-family="'Segoe UI', Arial, sans-serif" font-size="18" font-weight="700" text-anchor="start" fill="#111111">−</text><rect x="1880" y="1016" width="0" height="0"/><rect x="1420" y="1018" width="460" height="34" fill="#FFFFFF" stroke="#14213D" stroke-width="2"/><text x="1432" y="1042" font-family="'Segoe UI', Arial, sans-serif" font-size="17" font-weight="700" text-anchor="start" fill="#14213D">BLUE WAVE  ·  WRO Future Engineers 2026</text><rect x="1420" y="1052" width="460" height="34" fill="#FFFFFF" stroke="#14213D" stroke-width="2"/><text x="1432" y="1076" font-family="'Segoe UI', Arial, sans-serif" font-size="17" font-weight="700" text-anchor="start" fill="#14213D">Wiring schematic  ·  Firmware v20b  ·  Sheet 1 of 1</text></svg>